<?xml version="1.0" encoding="UTF-8"?>
<svg width="170px" height="198px" viewBox="0 0 170 198" version="1.1" xmlns="http://www.w3.org/2000/svg" xmlns:xlink="http://www.w3.org/1999/xlink">
    <title>Logo/NFHS_Logo/vertical_outline</title>
    <g id="Logo/NFHS_Logo/vertical_outline" stroke="none" stroke-width="1" fill="none" fill-rule="evenodd">
        <path d="M130.604288,135.010011 L143.154852,150.226852 L127.592834,162.988481 L84.8232263,198 L69.2938207,185.28715 L130.604288,135.010011 Z M105.504641,104.575591 L118.054464,119.793171 L53.7266144,172.543997 L38.1601493,159.800845 L105.504641,104.575591 Z M170,0 L162.959439,24.2335705 L162.959439,57.4609596 L105.504641,104.575591 L92.954818,89.3587506 L22.6018373,147.050302 L22.592943,147.057693 L7.04278408,134.301237 L7.02647791,134.31454 L7.0413017,133.963479 L7.0413017,24.2335705 L-2.84217094e-13,0 L170,0 Z M162.959439,82.9694366 L162.959439,108.477914 L130.604288,135.010011 L118.054464,119.793171 L162.959439,82.9694366 Z M164.081601,4.43445738 L5.91839938,4.43445738 L11.4884396,23.6046166 L11.4884396,130.652418 L80.4198185,74.1263895 L92.954818,89.3587506 L158.512302,35.5990847 L158.512302,23.6046166 L164.081601,4.43445738 Z M157.682391,146.189652 C158.817696,146.189652 159.789652,146.591739 160.598261,147.395913 C161.40687,148.200087 161.811174,149.162435 161.811174,150.284435 C161.811174,151.41087 161.40687,152.371739 160.598261,153.166304 C159.789652,153.961609 158.817696,154.359261 157.682391,154.359261 C156.542652,154.359261 155.569217,153.961609 154.763565,153.166304 C153.957174,152.371739 153.553609,151.41087 153.553609,150.284435 C153.553609,149.162435 153.957174,148.200087 154.763565,147.395913 C155.569217,146.591739 156.542652,146.189652 157.682391,146.189652 Z M157.689783,146.87113 C156.753304,146.87113 155.952826,147.207435 155.287609,147.880043 C154.622391,148.551913 154.289783,149.356087 154.289783,150.291826 C154.289783,151.226826 154.622391,152.025087 155.287609,152.68587 C155.952826,153.347391 156.753304,153.677783 157.689783,153.677783 C158.629217,153.677783 159.428957,153.347391 160.087522,152.68587 C160.746087,152.025087 161.075739,151.226826 161.075739,150.291826 C161.075739,149.356087 160.746087,148.551913 160.087522,147.880043 C159.428957,147.207435 158.629217,146.87113 157.689783,146.87113 Z M157.525696,147.681957 C158.165783,147.681957 158.658783,147.80687 159.004696,148.056696 C159.34987,148.306522 159.522087,148.647261 159.522087,149.078913 C159.522087,149.428522 159.416391,149.72713 159.205,149.974739 C158.993609,150.222348 158.681696,150.389391 158.268522,150.47513 L158.268522,150.495826 C158.554565,150.554957 158.838391,150.870565 159.12,151.442652 L159.794087,152.805609 L158.588565,152.805609 L158.09113,151.620043 C157.83687,151.029478 157.562652,150.734565 157.267,150.734565 L156.966913,150.734565 L156.966913,152.805609 L155.986087,152.805609 L155.986087,147.681957 L157.525696,147.681957 Z M157.416304,148.499435 L156.966913,148.499435 L156.966913,149.957739 L157.525696,149.957739 C158.156913,149.957739 158.472522,149.712348 158.472522,149.221565 C158.472522,148.971739 158.387522,148.789174 158.216783,148.67313 C158.046783,148.557826 157.780696,148.499435 157.416304,148.499435 Z M83.0614185,46.1442244 C84.0197767,46.1442244 84.9047571,46.3038648 85.7163598,46.6246239 C86.5264801,46.945383 87.2254219,47.3888288 87.8094794,47.9564393 C88.3950192,48.5233108 88.8501097,49.1877403 89.1769743,49.9497279 C89.5030977,50.7117155 89.6661595,51.5328292 89.6661595,52.4160253 C89.6661595,53.2977432 89.5030977,54.120335 89.1769743,54.8815836 C88.8501097,55.6435712 88.3950192,56.3080007 87.8094794,56.8748722 C87.2254219,57.4424827 86.5264801,57.8859284 85.7163598,58.2059484 C84.9047571,58.5267075 84.0197767,58.6870871 83.0614185,58.6870871 C82.0919424,58.6870871 81.2047384,58.5267075 80.398324,58.2059484 C79.5926509,57.8859284 78.8996386,57.4424827 78.3200283,56.8748722 C77.7411591,56.3080007 77.2882923,55.6435712 76.9614276,54.8815836 C76.6353042,54.120335 76.4715013,53.2977432 76.4715013,52.4160253 C76.4715013,51.5328292 76.6353042,50.7117155 76.9614276,49.9497279 C77.2882923,49.1877403 77.7411591,48.5233108 78.3200283,47.9564393 C78.8996386,47.3888288 79.5926509,46.945383 80.398324,46.6246239 C81.2047384,46.3038648 82.0919424,46.1442244 83.0614185,46.1442244 Z M97.078056,46.4745915 C97.7414207,46.4745915 98.3202898,46.5721495 98.8154045,46.7665266 C99.3105192,46.9609036 99.7189147,47.226232 100.040591,47.5625117 C100.361526,47.8987913 100.604636,48.2875454 100.766957,48.728774 C100.93076,49.1692634 101.011549,49.6422722 101.011549,50.1463222 C101.011549,51.0502124 100.792899,51.7826369 100.357079,52.3450739 C99.9197771,52.9067719 99.2742009,53.2873961 98.4203505,53.4869467 L102.165582,58.3559809 L98.3099132,58.3559809 L95.3555312,53.7862726 L95.3555312,58.3559809 L92.2573585,58.3559809 L92.2573585,46.4745915 L97.078056,46.4745915 Z M26.8999961,46.4745915 L32.6204978,53.7397108 L32.6204978,46.4745915 L35.7016232,46.4745915 L35.7016232,58.3559809 L32.6204978,58.3559809 L26.8999961,51.0916007 L26.8999961,58.3559809 L23.8018233,58.3559809 L23.8018233,46.4745915 L26.8999961,46.4745915 Z M45.2940997,46.4745915 L45.2940997,49.0901822 L41.6118695,49.0901822 L41.6118695,51.0760801 L45.088049,51.0760801 L45.088049,53.6924099 L41.6118695,53.6924099 L41.6118695,55.7403901 L45.2940997,55.7403901 L45.2940997,58.3559809 L38.5144379,58.3559809 L38.5144379,46.4745915 L45.2940997,46.4745915 Z M55.5336348,46.4745915 L55.5336348,49.0901822 L52.9891307,49.0901822 L52.9891307,58.3559809 L49.8924403,58.3559809 L49.8924403,49.0901822 L47.3479362,49.0901822 L47.3479362,46.4745915 L55.5336348,46.4745915 Z M60.5114645,46.4745915 L62.565301,54.149159 L65.0934989,46.4745915 L67.5594369,46.4745915 L70.0876348,54.149159 L72.1414713,46.4745915 L75.3812113,46.4745915 L71.8249833,58.3559809 L68.6652918,58.3559809 L66.3260973,51.4700077 L63.9869027,58.3559809 L60.8272113,58.3559809 L57.2717245,46.4745915 L60.5114645,46.4745915 Z M107.190848,46.4745915 L107.190848,51.3754059 L110.96795,46.4745915 L114.791748,46.4745915 L110.067405,52.1004397 L115.234979,58.3559809 L111.220696,58.3559809 L107.190848,53.2031414 L107.190848,58.3559809 L104.094157,58.3559809 L104.094157,46.4745915 L107.190848,46.4745915 Z M83.0614185,49.1382222 C82.6078104,49.1382222 82.1786616,49.2195206 81.7732308,49.3828564 C81.3670589,49.5454532 81.0120291,49.7738277 80.7066589,50.0679801 C80.4012888,50.3621324 80.1589198,50.7087592 79.9795519,51.1078603 C79.800184,51.5069615 79.7112412,51.9430165 79.7112412,52.4160253 C79.7112412,52.888295 79.800184,53.3243499 79.9795519,53.7241902 C80.1589198,54.1225523 80.4012888,54.469179 80.7066589,54.7633314 C81.0120291,55.0574837 81.3670589,55.2858583 81.7732308,55.4491941 C82.1786616,55.6117909 82.6078104,55.6930893 83.0614185,55.6930893 C83.5142853,55.6930893 83.9434341,55.6117909 84.3488649,55.4491941 C84.7542956,55.2858583 85.1130314,55.0574837 85.4235899,54.7633314 C85.7341484,54.469179 85.9787409,54.1225523 86.1581088,53.7241902 C86.3382179,53.3243499 86.4271607,52.888295 86.4271607,52.4160253 C86.4271607,51.9430165 86.3382179,51.5069615 86.1581088,51.1078603 C85.9787409,50.7087592 85.7341484,50.3621324 85.4235899,50.0679801 C85.1130314,49.7738277 84.7542956,49.5454532 84.3488649,49.3828564 C83.9434341,49.2195206 83.5142853,49.1382222 83.0614185,49.1382222 Z M95.9395887,48.8544169 L95.3555312,48.8544169 L95.3555312,51.7855932 L95.9395887,51.7855932 C96.550329,51.7855932 97.0202432,51.6599503 97.3463666,51.4071862 C97.6717489,51.1544221 97.8355518,50.7930139 97.8355518,50.3200051 C97.8355518,49.8469963 97.6717489,49.4848489 97.3463666,49.2328239 C97.0202432,48.9807989 96.550329,48.8544169 95.9395887,48.8544169 Z M109.742764,14.795567 C113.203378,14.795567 114.858455,16.4459243 114.858455,19.8966712 L114.858455,23.2350785 L107.786764,23.2350785 L107.786764,21.096931 C107.786764,20.5714478 107.636303,20.4214153 107.110058,20.4214153 L102.181888,20.4214153 C101.655643,20.4214153 101.504441,20.5714478 101.504441,21.096931 L101.504441,23.1219998 C101.504441,23.5351434 101.617843,23.647483 102.29529,23.8352084 L109.817624,25.7102448 C113.504301,26.6481325 115.234979,27.360602 115.234979,31.1114139 L115.234979,35.9501459 C115.234979,39.4008929 113.579161,41.0512501 110.118547,41.0512501 L99.4735809,41.0512501 C96.0129665,41.0512501 94.35789,39.4008929 94.35789,35.9501459 L94.35789,32.3493666 L101.430322,32.3493666 L101.430322,34.7498862 C101.430322,35.2746303 101.580042,35.4246627 102.107028,35.4246627 L107.485841,35.4246627 C108.012827,35.4246627 108.162547,35.2746303 108.162547,34.7498862 L108.162547,32.4617061 C108.162547,32.0493016 107.975026,31.9362229 107.372439,31.7861905 L99.8501053,29.8734612 C96.163428,28.9363125 94.4327501,28.223104 94.4327501,24.4722921 L94.4327501,19.8966712 C94.4327501,16.4459243 96.0885678,14.795567 99.5491823,14.795567 L109.742764,14.795567 Z M32.590109,14.7933498 L45.232581,30.8475637 L45.232581,20.573665 L43.1335319,20.573665 L43.1335319,14.7933498 L63.4865997,14.7933498 L63.4865997,20.573665 L52.0774674,20.573665 L52.0774674,24.9615606 L61.0658743,24.9615606 L61.0658743,30.7433539 L52.0774674,30.7433539 L52.0774674,41.0512501 L45.232581,41.0512501 L32.590109,24.9970362 L32.590109,41.0512501 L23.6454323,41.0512501 L23.6454323,35.2701958 L25.7444814,35.2701958 L25.7444814,20.573665 L23.6454323,20.573665 L23.6454323,14.7933498 L32.590109,14.7933498 Z M76.5322788,14.7933498 L76.5322788,20.573665 L75.032111,20.573665 L75.032111,24.926824 L83.0992191,24.926824 L83.0992191,20.573665 L81.3136933,20.573665 L81.3136933,14.7933498 L91.4946743,14.7933498 L91.4946743,20.573665 L89.9448468,20.573665 L89.9448468,35.2701958 L91.4946743,35.2701958 L91.4946743,41.0512501 L81.3136933,41.0512501 L81.3136933,35.2701958 L83.0992191,35.2701958 L83.0992191,30.220827 L75.032111,30.220827 L75.032111,35.2701958 L76.5322788,35.2701958 L76.5322788,41.0512501 L66.3512977,41.0512501 L66.3512977,35.2701958 L68.1857421,35.2701958 L68.1857421,20.573665 L66.3512977,20.573665 L66.3512977,14.7933498 L76.5322788,14.7933498 Z" id="Combined-Shape" fill="#FFFFFF"></path>
    </g>
</svg>